<svg xmlns="http://www.w3.org/2000/svg" xmlns:xlink="http://www.w3.org/1999/xlink" viewBox="0 0 18.65 18.52">
  <defs>
    <style>
      .cls-1 {
        fill: rgba(255, 255,255, 0.3);
      }

      .cls-2 {
        clip-path: url(#clip-path);
      }

      .cls-3 {
        fill: none;
      }
    </style>
    <clipPath id="clip-path" transform="translate(0 0)">
      <rect class="cls-1" width="18.65" height="18.52"/>
    </clipPath>
  </defs>
  <g id="Слой_2" data-name="Слой 2">
    <g id="Слой_1-2" data-name="Слой 1">
      <g class="cls-2">
        <path class="cls-3" d="M0,4V3.74L7.52,17.68a1.77,1.77,0,0,0,.74.65,2.61,2.61,0,0,0,1.06.19H4.23a3.68,3.68,0,0,1-1.55-.32,6.29,6.29,0,0,1-1.36-.87,5,5,0,0,1-1-1.26A3.82,3.82,0,0,1,0,14.55ZM1.77.84A5.19,5.19,0,0,1,2.68.32,3.68,3.68,0,0,1,4.23,0H14.42A3.68,3.68,0,0,1,16,.32a4.85,4.85,0,0,1,.91.52L9.32,14.75Zm16.85,2.9c0,.1,0,.16,0,.26V14.55a3.3,3.3,0,0,1-.39,1.52,4.39,4.39,0,0,1-1,1.26A5.45,5.45,0,0,1,16,18.2a3.68,3.68,0,0,1-1.55.32H9.32a2.57,2.57,0,0,0,1-.19,1.77,1.77,0,0,0,.74-.65Z" transform="translate(0 0)"/>
      </g>
    </g>
  </g>
</svg>
