<svg xmlns="http://www.w3.org/2000/svg" viewBox="0 0 75.09 65.01"><defs><style>.cls-1{fill:#dafd01;}.cls-2{fill:#fff;}</style></defs><g id="Слой_2" data-name="Слой 2"><g id="Режим_изоляции" data-name="Режим изоляции"><path d="M66.87,0A153.13,153.13,0,0,1,37.54,2.83,153.1,153.1,0,0,1,8.22,0L0,14.24A152.32,152.32,0,0,1,29.35,65H45.73A152.34,152.34,0,0,1,75.09,14.24Z"/><polygon class="cls-1" points="35.03 37.04 37.54 60.06 40.06 37.04 37.54 35.59 35.03 37.04"/><polygon class="cls-1" points="36.09 33.07 36.09 30.17 14.9 20.83 33.58 34.52 36.09 33.07"/><polygon class="cls-1" points="39 33.07 41.51 34.52 60.19 20.83 39 30.17 39 33.07"/><path class="cls-2" d="M47.34,24l-2.91.79a26.26,26.26,0,0,1-13.77,0L27.51,24l10,4.4Z"/><path class="cls-2" d="M24.08,30.37l2.14,2.13a26.23,26.23,0,0,1,6.9,11.91L34,47.57,32.78,36.73Z"/><path class="cls-2" d="M41.14,47.57,42,44.41A26.3,26.3,0,0,1,48.86,32.5L51,30.37l-8.7,6.36Z"/><polygon class="cls-2" points="14.9 10.14 19.02 10.14 14.9 13.7 14.9 14.89 20.83 14.89 20.83 13.7 16.71 13.7 20.83 10.14 20.83 8.95 14.9 8.95 14.9 10.14"/><path class="cls-2" d="M28,12.71a.88.88,0,0,1-1,1H25.41a.88.88,0,0,1-1-1V11.13c0-.66.27-1,.8-1H27a.88.88,0,0,1,1,1ZM27.2,9h-2a1.75,1.75,0,0,0-2,2v2a1.75,1.75,0,0,0,2,2h2a1.76,1.76,0,0,0,2-2v-2a1.75,1.75,0,0,0-2-2"/><polygon class="cls-2" points="36.33 13.09 32.79 8.95 31.58 8.95 31.58 14.89 32.77 14.89 32.77 10.75 36.31 14.89 37.51 14.89 37.51 8.95 36.33 8.95 36.33 13.09"/><polygon class="cls-2" points="39.92 10.14 44.76 10.14 45.85 8.95 39.92 8.95 39.92 10.14"/><polygon class="cls-2" points="39.92 12.51 44.76 12.51 45.85 11.33 39.92 11.33 39.92 12.51"/><polygon class="cls-2" points="39.92 14.89 44.76 14.89 45.85 13.7 39.92 13.7 39.92 14.89"/><path class="cls-2" d="M50.66,12.51h3.76q1,0,1,.6c0,.39-.33.59-1,.59H50.66v1.19h4a1.75,1.75,0,0,0,2-2q0-1.59-2-1.59H51.85V10.14H56.6V9H50.66Z"/><polygon class="cls-2" points="59 8.95 59 13.79 60.19 14.89 60.19 8.95 59 8.95"/></g></g></svg>