<svg xmlns="http://www.w3.org/2000/svg" viewBox="0 0 512 512"><defs><style>.cls-1{fill:#0092d2;}.cls-2{fill:#003c74;}</style></defs><g id="Слой_2" data-name="Слой 2"><g id="Capa_1" data-name="Capa 1"><path class="cls-1" d="M369.16,174.77a20,20,0,0,1,0,28.28L235,337.23a20,20,0,0,1-28.28,0l-63.87-63.87a20,20,0,0,1,28.28-28.29l49.73,49.73,120-120A20,20,0,0,1,369.16,174.77Z"/><path class="cls-2" d="M256,0C114.52,0,0,114.5,0,256S114.5,512,256,512,512,397.5,512,256,397.5,0,256,0Zm0,472A216,216,0,1,1,472,256,215.88,215.88,0,0,1,256,472Z"/></g></g></svg>