<svg xmlns="http://www.w3.org/2000/svg" viewBox="0 0 199.94 155.56"><defs><style>.cls-1{fill:#0099df;}.cls-2{fill:#6c6bbd;}.cls-3{fill:#eb001b;}.cls-4{fill:#fff;}</style></defs><g id="Слой_2" data-name="Слой 2"><g id="Слой_1-2" data-name="Слой 1"><path class="cls-1" d="M198.05,100.1V97.7h-.62l-.72,1.65L196,97.7h-.63v2.4h.44V98.29l.68,1.56h.46l.67-1.56v1.81Zm-4,0v-2h.8v-.4h-2v.4h.8v2Z"/><path class="cls-2" d="M127,110.41H72.93V13.22H127Z"/><path class="cls-3" d="M76.39,61.81A61.67,61.67,0,0,1,100,13.22a61.81,61.81,0,1,0,0,97.18A61.68,61.68,0,0,1,76.39,61.81"/><path class="cls-1" d="M199.94,61.81a61.8,61.8,0,0,1-100,48.59,61.8,61.8,0,0,0,0-97.18,61.8,61.8,0,0,1,100,48.59"/><path class="cls-4" d="M145.24,137.86a7.59,7.59,0,0,1,2.54.44l-1.1,3.37a5.79,5.79,0,0,0-2.23-.42c-2.34,0-3.5,1.51-3.5,4.22v9.21h-3.57V138.27h3.53v2a4.85,4.85,0,0,1,4.33-2.4M132,141.53h-5.83v7.41c0,1.65.58,2.75,2.37,2.75a6.55,6.55,0,0,0,3.15-.93l1,3.06a8.35,8.35,0,0,1-4.46,1.27c-4.22,0-5.7-2.27-5.7-6.08v-7.48h-3.33v-3.26h3.33v-5h3.61v5H132ZM86.35,145c.38-2.37,1.81-4,4.36-4,2.3,0,3.77,1.44,4.15,4Zm12.22,1.44c0-5.11-3.19-8.61-7.8-8.61-4.8,0-8.17,3.5-8.17,8.61s3.51,8.62,8.42,8.62a10,10,0,0,0,6.73-2.3L96,150.14a7.8,7.8,0,0,1-4.77,1.72,4.56,4.56,0,0,1-4.91-4H98.5c0-.44.07-.89.07-1.37m15.69-4a10.56,10.56,0,0,0-5.11-1.41c-2,0-3.13.72-3.13,1.92s1.23,1.41,2.78,1.61l1.68.24c3.57.52,5.73,2,5.73,4.91,0,3.13-2.74,5.36-7.48,5.36a11.87,11.87,0,0,1-7.11-2.13l1.69-2.78a8.73,8.73,0,0,0,5.46,1.72c2.43,0,3.74-.72,3.74-2,0-.92-.93-1.44-2.89-1.71l-1.68-.24c-3.67-.52-5.66-2.16-5.66-4.84,0-3.26,2.68-5.25,6.83-5.25a12.26,12.26,0,0,1,6.69,1.71Zm44-1.21a5.5,5.5,0,0,0-2,.38,4.81,4.81,0,0,0-1.63,1.09,5.09,5.09,0,0,0-1.09,1.67,6.07,6.07,0,0,0,0,4.28,5.09,5.09,0,0,0,1.09,1.67,4.94,4.94,0,0,0,1.63,1.08,5.58,5.58,0,0,0,4.1,0,4.91,4.91,0,0,0,2.74-2.75,6.07,6.07,0,0,0,0-4.28,5,5,0,0,0-1.1-1.67,4.86,4.86,0,0,0-1.64-1.09,5.54,5.54,0,0,0-2.05-.38m0-3.39a9.37,9.37,0,0,1,3.54.66,8.68,8.68,0,0,1,2.81,1.82,8.46,8.46,0,0,1,1.86,2.75,8.58,8.58,0,0,1-4.67,11.45,9.82,9.82,0,0,1-7.08,0,8.63,8.63,0,0,1-2.8-1.82A8.54,8.54,0,0,1,150.1,150a9.17,9.17,0,0,1,0-6.88,8.43,8.43,0,0,1,1.85-2.75,8.63,8.63,0,0,1,2.8-1.82,9.37,9.37,0,0,1,3.54-.66m-92.8,8.61a5,5,0,1,1,5,5.25,4.92,4.92,0,0,1-5-5.25m13.28,0v-8.2H75.2v2a6.19,6.19,0,0,0-5.18-2.4c-4.6,0-8.2,3.6-8.2,8.61s3.6,8.62,8.2,8.62a6.22,6.22,0,0,0,5.18-2.4v2h3.57Zm-20.11,8.21v-10.3a6.1,6.1,0,0,0-6.46-6.52,6.33,6.33,0,0,0-5.76,2.91A6.05,6.05,0,0,0,41,137.86a5.43,5.43,0,0,0-4.81,2.43v-2H32.64v16.41h3.6v-9.1c0-2.85,1.58-4.36,4-4.36s3.58,1.54,3.58,4.33v9.13h3.6v-9.1c0-2.85,1.65-4.36,4-4.36s3.6,1.54,3.6,4.33v9.13Z"/><path class="cls-4" d="M171,153.45v.4h.37a.39.39,0,0,0,.2,0,.18.18,0,0,0,0-.3.31.31,0,0,0-.2-.05Zm.37-.29a.71.71,0,0,1,.45.13.44.44,0,0,1,.16.36.4.4,0,0,1-.13.31.6.6,0,0,1-.35.15l.49.57h-.38l-.46-.57H171v.57h-.33v-1.52Zm-.09,2a1.16,1.16,0,0,0,.49-.1,1.56,1.56,0,0,0,.4-.27,1.46,1.46,0,0,0,.27-.41,1.34,1.34,0,0,0,.1-.49,1.39,1.39,0,0,0-.1-.5,1.41,1.41,0,0,0-.27-.4,1.18,1.18,0,0,0-.4-.27,1.16,1.16,0,0,0-.49-.1,1.18,1.18,0,0,0-.5.1,1,1,0,0,0-.41.27,1.09,1.09,0,0,0-.27.4,1.21,1.21,0,0,0-.1.5,1.16,1.16,0,0,0,.1.49,1.13,1.13,0,0,0,.27.41,1.33,1.33,0,0,0,.41.27,1.18,1.18,0,0,0,.5.1m0-2.9a1.53,1.53,0,0,1,.64.13,1.49,1.49,0,0,1,.53.35,1.41,1.41,0,0,1,.35.51,1.62,1.62,0,0,1,0,1.27,1.41,1.41,0,0,1-.35.51,1.66,1.66,0,0,1-.53.36,1.7,1.7,0,0,1-.64.13,1.64,1.64,0,0,1-1.19-.49,1.41,1.41,0,0,1-.35-.51,1.62,1.62,0,0,1,0-1.27,1.41,1.41,0,0,1,.35-.51,1.69,1.69,0,0,1,1.19-.48"/></g></g></svg>