<svg xmlns="http://www.w3.org/2000/svg" viewBox="0 0 1000.01 775.97"><defs><style>.cls-1{fill:#fff;}.cls-2{fill:#ff5f00;}.cls-3{fill:#eb001b;}.cls-4{fill:#f79e1b;}</style></defs><g id="Слой_2" data-name="Слой 2"><g id="svg3409"><g id="layer1"><g id="g13"><g id="g15"><path class="cls-1" d="M182,774.26V722.75c0-19.74-12-32.62-32.62-32.62-10.3,0-21.46,3.44-29.19,14.6-6-9.45-14.59-14.6-27.47-14.6-8.58,0-17.16,2.58-24,12v-10.3h-18v82.41h18v-45.5c0-14.59,7.73-21.46,19.74-21.46s18,7.73,18,21.46v45.5h18v-45.5c0-14.59,8.59-21.46,19.75-21.46,12,0,18,7.73,18,21.46v45.5Zm267-82.41H419.75V667h-18v24.89H385.41v16.31h16.31v37.77c0,18.88,7.73,30,28.33,30a47.89,47.89,0,0,0,22.31-6l-5.15-15.45a28.18,28.18,0,0,1-15.45,4.29c-8.58,0-12-5.15-12-13.73V708.16h29.18Zm152.79-1.72c-10.3,0-17.17,5.15-21.46,12v-10.3h-18v82.41h18V727.9c0-13.73,6-21.46,17.17-21.46a50.25,50.25,0,0,1,11.16,1.72L613.74,691c-3.43-.86-8.59-.86-12-.86Zm-230.9,8.59c-8.59-6-20.6-8.59-33.48-8.59-20.6,0-34.33,10.31-34.33,26.61,0,13.74,10.3,21.46,28.32,24l8.59.86c9.44,1.71,14.59,4.29,14.59,8.58,0,6-6.87,10.3-18.89,10.3a47.39,47.39,0,0,1-27.46-8.58l-8.59,13.73c9.45,6.87,22.32,10.3,35.2,10.3,24,0,37.76-11.16,37.76-26.61,0-14.59-11.15-22.32-28.32-24.89l-8.59-.86c-7.72-.86-13.73-2.57-13.73-7.72,0-6,6-9.45,15.45-9.45,10.3,0,20.6,4.3,25.75,6.87l7.73-14.59Zm479-8.59c-10.3,0-17.17,5.15-21.46,12v-10.3h-18v82.41h18V727.9c0-13.73,6-21.46,17.17-21.46a50.16,50.16,0,0,1,11.16,1.72L861.81,691c-3.43-.86-8.58-.86-12-.86Zm-230,42.92c0,24.9,17.16,42.92,43.77,42.92,12,0,20.61-2.57,29.19-9.44l-8.58-14.59c-6.87,5.15-13.74,7.72-21.46,7.72-14.6,0-24.9-10.3-24.9-26.61,0-15.45,10.3-25.75,24.9-26.61,7.72,0,14.59,2.58,21.46,7.73l8.58-14.59c-8.58-6.87-17.17-9.45-29.19-9.45-26.61,0-43.77,18-43.77,42.92Zm166.52,0v-41.2h-18v10.3c-6-7.72-14.6-12-25.75-12-23.18,0-41.21,18-41.21,42.92S719.32,776,742.5,776c12,0,20.6-4.29,25.75-12v10.3h18V733.05Zm-66.09,0c0-14.59,9.44-26.61,24.89-26.61,14.59,0,24.89,11.16,24.89,26.61,0,14.6-10.3,26.61-24.89,26.61-15.45-.86-24.89-12-24.89-26.61ZM504.72,690.13c-24,0-41.2,17.17-41.2,42.92S480.69,776,505.58,776c12,0,24-3.43,33.48-11.16l-8.58-12.87c-6.87,5.15-15.45,8.58-24,8.58-11.16,0-22.32-5.15-24.89-19.74h60.94v-6.87c.86-26.61-14.59-43.78-37.76-43.78h0Zm0,15.46c11.16,0,18.89,6.86,20.61,19.74H482.41c1.71-11.16,9.44-19.74,22.31-19.74Zm447.22,27.46V659.23h-18v42.92c-6-7.72-14.59-12-25.75-12-23.17,0-41.2,18-41.2,42.92S885,776,908.16,776c12,0,20.6-4.29,25.75-12v10.31h18V733.05Zm-66.1,0c0-14.59,9.45-26.61,24.9-26.61,14.59,0,24.89,11.16,24.89,26.61,0,14.6-10.3,26.61-24.89,26.61-15.45-.86-24.9-12-24.9-26.61Zm-602.58,0v-41.2h-18v10.3c-6-7.72-14.59-12-25.75-12-23.18,0-41.21,18-41.21,42.92s18,42.92,41.21,42.92c12,0,20.6-4.29,25.75-12v10.3h18V733.05Zm-66.95,0c0-14.59,9.44-26.61,24.89-26.61,14.6,0,24.9,11.16,24.9,26.61,0,14.6-10.3,26.61-24.9,26.61C225.75,758.8,216.31,747.65,216.31,733.05Z"/></g><rect id="rect19" class="cls-2" x="364.81" y="66.1" width="270.39" height="485.84"/><path class="cls-3" d="M382,309c0-98.72,46.35-186.27,117.6-242.92A307.1,307.1,0,0,0,309,0C138.2,0,0,138.2,0,309S138.2,618,309,618a307.16,307.16,0,0,0,190.56-66.09C428.33,496.14,382,407.73,382,309Z"/><path id="path22" class="cls-4" d="M1000,309c0,170.81-138.2,309-309,309a307.14,307.14,0,0,1-190.56-66.09C572.54,495.28,618,407.73,618,309S571.68,122.75,500.43,66.1A307.08,307.08,0,0,1,691,0C861.81,0,1000,139.06,1000,309Z"/></g></g></g></g></svg>