<svg xmlns="http://www.w3.org/2000/svg" xmlns:xlink="http://www.w3.org/1999/xlink" viewBox="0 0 809 229"><defs><style>.cls-1{fill:#4db45e;}.cls-1,.cls-2{fill-rule:evenodd;}.cls-2{fill:url(#Безымянный_градиент);}</style><linearGradient id="Безымянный_градиент" x1="570.9" y1="183.74" x2="809" y2="183.74" gradientTransform="matrix(1, 0, 0, -1, 0, 230.74)" gradientUnits="userSpaceOnUse"><stop offset="0.3" stop-color="#00b4e6"/><stop offset="1" stop-color="#088ccb"/></linearGradient></defs><g id="Слой_2" data-name="Слой 2"><g id="Layer_1" data-name="Layer 1"><g id="g5"><path id="path7" class="cls-1" d="M218,0V.1c-.1,0-31.6-.1-40,30-7.7,27.6-29.4,103.8-30,105.9h-6S119.8,58.1,112,30C103.6-.1,72,0,72,0H0V229H72V93h6l42,136h50L212,93.1h6V229h72V0Z"/></g><g id="g9"><path id="path11" class="cls-1" d="M481,0a40.34,40.34,0,0,0-31,24L399,136h-6V0H321V229h68s22.1-2,32-24L471,93h6V229h72V0Z"/></g><g id="g13"><path id="path15" class="cls-1" d="M581,104V229h72V156h78a77.9,77.9,0,0,0,73.5-52Z"/></g><g id="g17"><path id="path24" class="cls-2" d="M731,0H570.9a115,115,0,0,0,83,90h0A115.05,115.05,0,0,0,684,94H807.4A76.86,76.86,0,0,0,809,78,78,78,0,0,0,731,0Z"/></g></g></g></svg>