<svg xmlns="http://www.w3.org/2000/svg" viewBox="0 0 110.77 49.77"><defs><style>.cls-1{fill:#fff;}.cls-2{fill:#ff8c00;}</style></defs><g id="Слой_2" data-name="Слой 2"><g id="svg5487"><g id="layer1"><g id="g5493"><path id="path5489" class="cls-1" d="M54.28,28.22H56v3.89h1.26l2.25-3.89h1.9l-2.7,4.56v0l2.86,5h-2L57.3,33.62H56.05V37.8H54.31V28.22Zm11.19,2.54a3.64,3.64,0,0,1,3.8,3.6,3.77,3.77,0,0,1-7.53,0A3.55,3.55,0,0,1,65.47,30.76Zm5.15.16h1.64v5.4h2.16v-5.4h1.64v5.4h2.15v-5.4h1.64V37.8H70.68V30.92Zm14.09-.16A3,3,0,0,1,87.77,34c0,.22,0,.45-.06.67H83A2,2,0,0,0,85,36.52a3.43,3.43,0,0,0,2-.74L87.67,37a4.4,4.4,0,0,1-2.76,1,3.52,3.52,0,0,1-3.7-3.61A3.41,3.41,0,0,1,84.71,30.76Zm3.86,5.6c.84-.13,1.45-.84,1.45-3.29V30.92h5V37.8h-1.7V32.3H91.66v.77c0,3-.8,4.73-3.09,4.8V36.35Zm11.36-5.6A3,3,0,0,1,103,34a5.08,5.08,0,0,1-.07.67H98.19a2,2,0,0,0,2.06,1.84,3.44,3.44,0,0,0,2-.74l.67,1.22a4.43,4.43,0,0,1-2.77,1,3.52,3.52,0,0,1-3.69-3.61A3.41,3.41,0,0,1,99.93,30.76Zm4.47.16h1.71v2.64H107l1.67-2.64h1.9l-2.19,3.28v0l2.44,3.57h-2L107,35h-.9v2.8h-1.71V30.92ZM65.47,36.49a2.16,2.16,0,0,0,0-4.32,2.16,2.16,0,0,0,0,4.32Zm20.56-3A1.35,1.35,0,0,0,84.65,32,1.66,1.66,0,0,0,83,33.49Zm15.22,0A1.35,1.35,0,0,0,99.87,32a1.68,1.68,0,0,0-1.68,1.45Z"/><path id="path5491" class="cls-2" d="M78.31,7.34V23.58a.43.43,0,0,1-.43.45H74.55a.43.43,0,0,1-.45-.43V7.34a.43.43,0,0,1,.43-.45h3.33a.43.43,0,0,1,.45.42Zm25.87-.45a.75.75,0,0,1,.45.19.37.37,0,0,1,.06.38L99.22,23.74a.43.43,0,0,1-.41.29h-3a.4.4,0,0,1-.42-.29l-3.19-9.49-3.18,9.49a.45.45,0,0,1-.42.29h-3a.41.41,0,0,1-.42-.29L79.79,7.46a.44.44,0,0,1,.06-.38.42.42,0,0,1,.36-.2h3.7a.45.45,0,0,1,.42.33l2.92,9.62,3.22-9.62a.44.44,0,0,1,.42-.29H93.5a.4.4,0,0,1,.41.29l3.22,9.62,2.93-9.62a.43.43,0,0,1,.42-.32Zm5.6,0a.49.49,0,0,1,.45.45V23.58a.44.44,0,0,1-.43.45h-3.34a.44.44,0,0,1-.45-.43V7.34a.44.44,0,0,1,.43-.45h3.34ZM72.17,23.45a.33.33,0,0,1-.26.55H67.85a.5.5,0,0,1-.41-.19L66.76,23a8.84,8.84,0,1,1,2.7-2.67l2.71,3.15ZM38.29,31.34c.83.32,1.15,1.57,1.22,2.12.13,1-.16,1.38-.48,1.38s-.78-.38-1.26-1.15a2.41,2.41,0,0,1-.42-2.1.72.72,0,0,1,.94-.25ZM33.4,35a2.54,2.54,0,0,1,1.61.68c1,.84,1.28,1.8.77,2.51a1.71,1.71,0,0,1-1.32.58A2.3,2.3,0,0,1,33,38.19a2.1,2.1,0,0,1-.58-2.77A1.24,1.24,0,0,1,33.4,35Zm-11.26,9.3a22.1,22.1,0,1,1,19-10.78.15.15,0,0,1-.26-.06C40.12,28,36.81,25,32,24.1c-.42-.07-.48-.32.07-.39a22,22,0,0,1,4.66.1,15.87,15.87,0,0,0,.1-1.71A14.64,14.64,0,1,0,22.17,36.74h.67a20.1,20.1,0,0,1-.29-4c0-.91.23-1,.62-.33a15.26,15.26,0,0,0,10.58,7.92c4.63,1,9.27,2.22,14.25,8.56.45.54-.22,1.12-.74.67-5.08-4.5-9.71-6-13.93-6-4.73,0-7.95.64-11.2.64Zm42-24.42-1.77-2.16a.35.35,0,0,1,.26-.57h3.73a4.71,4.71,0,0,0,.29-1.68,4.74,4.74,0,1,0-9.46,0,4.82,4.82,0,0,0,4.73,5A4.51,4.51,0,0,0,64.12,19.85Z"/></g></g></g></g></svg>