<svg xmlns="http://www.w3.org/2000/svg" viewBox="0 0 512 512"><defs><style>.cls-1{fill:#003d74;}.cls-2{fill:#0092d2;}</style></defs><g id="Слой_2" data-name="Слой 2"><g id="Outline"><g id="surface1"><path class="cls-1" d="M497,37H431.3q.36-10.91.37-22a15,15,0,0,0-15-15H95.33a15,15,0,0,0-15,15q0,11,.37,22H15A15,15,0,0,0,0,52c0,67.21,17.57,130.62,49.46,178.56C81,277.89,123,305.07,168.35,307.72A154.27,154.27,0,0,0,200.83,335v66.66H175.67a55.23,55.23,0,0,0-55.17,55.17V482h-1.07a15,15,0,0,0,0,30H392.57a15,15,0,0,0,0-30H391.5V456.83a55.23,55.23,0,0,0-55.17-55.17H311.17V335a154,154,0,0,0,32.48-27.28C389,305.07,431,277.89,462.54,230.51,494.44,182.57,512,119.16,512,52A15,15,0,0,0,497,37ZM74.44,213.89C48.13,174.36,32.67,122.64,30.32,67H82.38c5.41,68.46,21.48,131.75,46.6,182q6,12,12.52,22.67C116.55,262.18,93.46,242.48,74.44,213.89ZM361.5,456.83V482h-211V456.83a25.2,25.2,0,0,1,25.17-25.17H336.33A25.2,25.2,0,0,1,361.5,456.83Zm-80.33-55.17H230.83V348a97.64,97.64,0,0,0,50.34,0Zm9.29-89.32a14.86,14.86,0,0,0-1.95,1,70.07,70.07,0,0,1-65,0,14.46,14.46,0,0,0-2-1c-11.77-6.22-23.15-15.61-33.91-27.95a14.59,14.59,0,0,0-1.91-2.24C175,269.47,165,253.87,155.81,235.51,128.24,180.38,112.32,107.89,110.51,30h291c-1.81,77.89-17.74,150.38-45.3,205.51-9.18,18.36-19.23,34-29.91,46.64a15.23,15.23,0,0,0-1.92,2.24C313.6,296.73,302.22,306.12,290.46,312.34Zm147.1-98.45c-19,28.59-42.11,48.29-67.06,57.71Q377,260.92,383,248.93c25.12-50.23,41.19-113.52,46.6-182h52.06C479.33,122.64,463.87,174.36,437.56,213.89Z"/></g><rect class="cls-2" x="175" y="120" width="162" height="62"/></g></g></svg>