<svg xmlns="http://www.w3.org/2000/svg" viewBox="0 0 512 512"><defs><style>.cls-1{fill:#003d74;}.cls-2{fill:#0092d2;}</style></defs><g id="Слой_2" data-name="Слой 2"><g id="Outline"><path class="cls-1" d="M512,0H0V451.75H30.12V512h84.53l30.12-60.25H367.23L397.35,512h84.53V451.75H512ZM96.1,482h-36V451.75h51.1Zm355.78,0h-36l-15.13-30.25h51.11V482ZM482,421.75H30V30H482Z"/><path class="cls-1" d="M256,331.25A105.38,105.38,0,1,0,150.62,225.88,105.5,105.5,0,0,0,256,331.25Zm-73.87-90.37h31.32A45.36,45.36,0,0,0,241,268.43v31.32A75.59,75.59,0,0,1,182.13,240.88ZM256,210.75a15.13,15.13,0,1,1-15.12,15.13A15.14,15.14,0,0,1,256,210.75Zm15,89V268.43a45.36,45.36,0,0,0,27.55-27.55h31.32A75.59,75.59,0,0,1,271,299.75Zm58.87-88.87H298.55A45.32,45.32,0,0,0,271,183.32V152A75.59,75.59,0,0,1,329.87,210.88ZM241,152v31.32a45.35,45.35,0,0,0-27.55,27.56H182.13A75.59,75.59,0,0,1,241,152Z"/><rect class="cls-2" x="56" y="52.88" width="38.35" height="346"/></g></g></svg>