<svg xmlns="http://www.w3.org/2000/svg" viewBox="0 0 450 512"><defs><style>.cls-1{fill:#0092d2;}.cls-2{fill:#003d74;}</style></defs><g id="Слой_2" data-name="Слой 2"><g id="Outline"><rect class="cls-1" x="205.83" y="27.59" width="38.35" height="216.83" transform="translate(89 361) rotate(-90)"/><path class="cls-2" d="M405,0H45A45.05,45.05,0,0,0,0,45V467a45.05,45.05,0,0,0,45,45H405a45.05,45.05,0,0,0,45-45V45A45.05,45.05,0,0,0,405,0Zm15,467a15,15,0,0,1-15,15H45a15,15,0,0,1-15-15V45A15,15,0,0,1,45,30H405a15,15,0,0,1,15,15Z"/><path class="cls-2" d="M375,60H75A15,15,0,0,0,60,75V197a15,15,0,0,0,15,15H375a15,15,0,0,0,15-15V75A15,15,0,0,0,375,60ZM360,182H90V90H360Z"/><path class="cls-2" d="M135,242H75a15,15,0,0,0-15,15v60a15,15,0,0,0,15,15h60a15,15,0,0,0,15-15V257A15,15,0,0,0,135,242Zm-15,60H90V272h30Z"/><path class="cls-2" d="M135,362H75a15,15,0,0,0-15,15v60a15,15,0,0,0,15,15h60a15,15,0,0,0,15-15V377A15,15,0,0,0,135,362Zm-15,60H90V392h30Z"/><path class="cls-2" d="M255,242H195a15,15,0,0,0-15,15v60a15,15,0,0,0,15,15h60a15,15,0,0,0,15-15V257A15,15,0,0,0,255,242Zm-15,60H210V272h30Z"/><path class="cls-2" d="M255,362H195a15,15,0,0,0-15,15v60a15,15,0,0,0,15,15h60a15,15,0,0,0,15-15V377A15,15,0,0,0,255,362Zm-15,60H210V392h30Z"/><path class="cls-2" d="M375,242H315a15,15,0,0,0-15,15V437a15,15,0,0,0,15,15h60a15,15,0,0,0,15-15V257A15,15,0,0,0,375,242ZM360,422H330V272h30Z"/></g></g></svg>