<svg xmlns="http://www.w3.org/2000/svg" viewBox="0 0 320 512"><defs><style>.cls-1{fill:#0092d2;}.cls-2{fill:#003d74;}</style></defs><g id="Слой_2" data-name="Слой 2"><g id="Outline"><rect class="cls-1" x="140.83" y="154.46" width="38.35" height="216.83" transform="translate(-102.87 422.88) rotate(-90)"/><path class="cls-2" d="M208,64H176V32h48V0H96V32h48V64H112A112.14,112.14,0,0,0,0,176V464a16,16,0,0,0,16,16H32v16a16,16,0,0,0,16,16H272a16,16,0,0,0,16-16V480h16a16,16,0,0,0,16-16V176A112.14,112.14,0,0,0,208,64ZM112,96h96a80.09,80.09,0,0,1,80,80v16H32V176a80.09,80.09,0,0,1,80-80ZM288,224V384H32V224ZM272,448a16,16,0,0,0-16,16v16H64V464a16,16,0,0,0-16-16H32V416H288v32Z"/></g></g></svg>