<svg xmlns="http://www.w3.org/2000/svg" viewBox="0 0 512 512"><defs><style>.cls-1{fill:#003d74;}.cls-2{fill:#0092d2;}</style></defs><g id="Слой_2" data-name="Слой 2"><g id="Outline"><path class="cls-1" d="M251.88,212.79c0-27.6-24.1-42.64-48-42.64-23.48,0-46.56,14.42-46.56,39.55,0,13,6.19,16.69,14.43,16.69,10.5,0,16.89-5.77,16.89-11.74,0-11.33,7.21-15.45,15.45-15.45,11.53,0,15.65,8,15.65,14.62,0,26.16-64.88,44.7-64.88,77.05v20c0,6,8.23,9.88,14,9.88H242.2c5.14,0,9.68-6.79,9.68-14.21s-4.54-13.8-9.68-13.8h-54v-1.85C188.23,272.12,251.88,257.5,251.88,212.79Z"/><path class="cls-1" d="M327.07,320.73c8,0,16.06-3.29,16.06-9.88V289H352c4.94,0,9.89-7.41,9.89-14.83s-3.29-14.83-9.89-14.83h-8.86V244.93c0-6.8-8-9.68-16.06-9.68S311,238.13,311,244.93v14.42H293.29l36.46-73.13a10.19,10.19,0,0,0,1-3.91c0-7.42-10.5-12.16-16.06-12.16a14.47,14.47,0,0,0-13.39,8.24l-47.59,93.32c-4,7.42-.61,17.3,9.07,17.3H311v21.84C311,317.44,319,320.73,327.07,320.73Z"/><path class="cls-1" d="M492,236a20,20,0,0,0-20,20A215.91,215.91,0,1,1,375.46,76h-22a20,20,0,0,0,0,40h76a20.08,20.08,0,0,0,20-20V20a20,20,0,0,0-40,0V51.07A255.07,255.07,0,0,0,256,0C114.52,0,0,114.5,0,256S114.5,512,256,512,512,397.5,512,256A20,20,0,0,0,492,236Z"/><path class="cls-2" d="M256,430c59,0,106.85-30.89,106.85-69H149.15C149.15,399.11,197,430,256,430Z"/></g></g></svg>