<svg xmlns="http://www.w3.org/2000/svg" viewBox="0 0 512 480"><defs><style>.cls-1{fill:#003d74;}.cls-2{fill:#0092d2;}</style></defs><g id="Слой_2" data-name="Слой 2"><g id="Outline"><path class="cls-1" d="M336,0C250.69,0,160,28,160,80v64a16,16,0,0,0,32,0V127.33C226,148.74,282,160,336,160s110.05-11.26,144-32.67V144c0,15.65-39.36,40.61-113.34,46.78A16,16,0,0,0,368,222.72c.48,0,.89,0,1.37-.06C411,219.17,452.51,208.38,480,190.88V208c0,13.66-29,33.31-82.78,42.82A16,16,0,0,0,400,282.56a13.31,13.31,0,0,0,2.81-.26c32.55-5.72,58.6-15.1,77.22-27V272c0,13.66-29,33.31-82.78,42.82A16,16,0,0,0,400,346.56a13.31,13.31,0,0,0,2.81-.26c32.55-5.72,58.6-15.13,77.22-27V336c0,13.66-29,33.31-82.78,42.82A16,16,0,0,0,400,410.56a13.31,13.31,0,0,0,2.81-.26c32.55-5.72,58.6-15.13,77.22-27V400c0,15.65-39.36,40.61-113.34,46.78A16,16,0,0,0,368,478.72c.48,0,.89,0,1.37-.06,71-6,142.66-32.55,142.66-78.66V80C512,28,421.31,0,336,0Zm0,128c-87.9,0-144-28.45-144-48s56.1-48,144-48S480,60.45,480,80,423.9,128,336,128Z"/><path class="cls-1" d="M176,192C90.69,192,0,220,0,272V400c0,52,90.69,80,176,80s176-28,176-80V272C352,220,261.31,192,176,192ZM320,400c0,19.55-56.1,48-144,48S32,419.55,32,400V383.33C66,404.74,122,416,176,416s110.05-11.26,144-32.67Zm0-64c0,19.55-56.1,48-144,48S32,355.55,32,336V319.33C66,340.74,122,352,176,352s110.05-11.26,144-32.67ZM176,320c-87.9,0-144-28.45-144-48s56.1-48,144-48,144,28.45,144,48S263.9,320,176,320Z"/><ellipse class="cls-2" cx="176" cy="272" rx="94.5" ry="31.5"/></g></g></svg>