<svg xmlns="http://www.w3.org/2000/svg" viewBox="0 0 38 54.58"><defs><style>.cls-1{fill:#fff;stroke:#0092d2;stroke-miterlimit:10;stroke-width:2px;}.cls-2,.cls-3{fill:#0092d2;}.cls-3{font-size:8px;font-family:Circe-Bold, Circe;font-weight:700;}.cls-4{letter-spacing:-0.03em;}</style></defs><g id="Слой_2" data-name="Слой 2"><g id="Слой_1-2" data-name="Слой 1"><rect class="cls-1" x="1" y="1" width="36" height="36"/><path class="cls-2" d="M30.83,15.82a.48.48,0,0,0-.42-.3h-2.2a.49.49,0,0,0-.43.3c-.05.16-.09.31-.12.44l-1.47-4.05a1.69,1.69,0,0,0-1.59-1.12H13.4a1.69,1.69,0,0,0-1.59,1.12l-1.47,4.05c0-.13-.07-.28-.12-.44a.49.49,0,0,0-.43-.3H7.59a.48.48,0,0,0-.42.3,2.08,2.08,0,0,0,0,1.66.48.48,0,0,0,.42.3h2.2l0,.09A1.12,1.12,0,0,0,9,18.94v7.43a.54.54,0,0,0,.54.54h2.72a.54.54,0,0,0,.54-.54V23.73H25.21v2.64a.54.54,0,0,0,.54.54h2.72a.54.54,0,0,0,.54-.54V18.94a1.12,1.12,0,0,0-.77-1.07l0-.09h2.2a.48.48,0,0,0,.42-.3A2.08,2.08,0,0,0,30.83,15.82ZM13.61,13.08H24.39l1.71,4.73H11.9Zm.3,8.06H11.63a.88.88,0,1,1,0-1.76h2.28a.88.88,0,1,1,0,1.76Zm12.46,0H24.09a.88.88,0,0,1,0-1.76h2.28a.88.88,0,1,1,0,1.76Z"/><text class="cls-3" transform="translate(7.6 51.2)">AU<tspan class="cls-4" x="11.73" y="0">T</tspan><tspan x="16.25" y="0">O</tspan></text></g></g></svg>