<svg xmlns="http://www.w3.org/2000/svg" viewBox="0 0 38 54.58"><defs><style>.cls-1{fill:#fff;stroke:#0092d2;stroke-miterlimit:10;stroke-width:2px;}.cls-2,.cls-3{fill:#0092d2;}.cls-3{font-size:8px;font-family:Circe-Bold, Circe;font-weight:700;}</style></defs><g id="Слой_2" data-name="Слой 2"><g id="Слой_1-2" data-name="Слой 1"><rect class="cls-1" x="1" y="1" width="36" height="36"/><path class="cls-2" d="M31,14.27V12.6H28.72V10.12a.83.83,0,0,0-.84-.84H25.4V7H23.73V9.28H22.62V7H21V9.28H19.84V7H18.16V9.28H17.05V7H15.38V9.28H14.27V7H12.6V9.28H10.12a.83.83,0,0,0-.84.84V12.6H7v1.67H9.28v1.11H7v1.67H9.28v1.11H7v1.68H9.28V21H7v1.67H9.28v1.11H7V25.4H9.28v2.48a.83.83,0,0,0,.84.84H12.6V31h1.67V28.72h1.11V31h1.67V28.72h1.11V31h1.68V28.72H21V31h1.67V28.72h1.11V31H25.4V28.72h2.48a.83.83,0,0,0,.84-.84V25.4H31V23.73H28.72V22.62H31V21H28.72V19.84H31V18.16H28.72V17.05H31V15.38H28.72V14.27ZM25.18,24.35a.82.82,0,0,1-.83.83H13.65a.82.82,0,0,1-.83-.83V13.65a.82.82,0,0,1,.83-.83h10.7a.82.82,0,0,1,.83.83Z"/><path class="cls-2" d="M22,15.49h-5.9a.56.56,0,0,0-.56.56V22a.56.56,0,0,0,.56.56H22a.56.56,0,0,0,.56-.56v-5.9A.56.56,0,0,0,22,15.49Z"/><text class="cls-3" transform="translate(9.5 51.2)">SEMI</text></g></g></svg>