<svg xmlns="http://www.w3.org/2000/svg" viewBox="0 0 38 54.58"><defs><style>.cls-1{fill:#fff;stroke:#0092d2;stroke-miterlimit:10;stroke-width:2px;}.cls-2,.cls-3{fill:#0092d2;}.cls-3{font-size:8px;font-family:Circe-Bold, Circe;font-weight:700;letter-spacing:-0.03em;}.cls-4{letter-spacing:0em;}</style></defs><g id="Слой_2" data-name="Слой 2"><g id="Слой_1-2" data-name="Слой 1"><rect class="cls-1" x="1" y="1" width="36" height="36"/><path class="cls-2" d="M7.21,16.43a.69.69,0,0,0,0,1l4,4a.72.72,0,0,0,1,0l1-1a.69.69,0,0,0,0-1,.7.7,0,1,1,1-1l-4-4a.71.71,0,0,1,0,1,.69.69,0,0,1-1,0,.72.72,0,0,0-1,0Z"/><path class="cls-2" d="M16.74,13a.14.14,0,0,1,0-.17,9,9,0,0,1,5.88-2.2.69.69,0,0,0,.65-.43.71.71,0,0,0-.15-.77c-3.07-3.07-7.31-1.64-10,1l-2,2a.71.71,0,0,0,0,1l3.49,3.48,3-3Z"/><path class="cls-2" d="M30.38,29.66a2.11,2.11,0,0,0,0-3L18.64,14.93l-3,3L27.4,29.66a2.11,2.11,0,0,0,3,0Z"/><text class="cls-3" transform="translate(2.82 51.2)">C<tspan class="cls-4" x="5.01" y="0">ONSTR</tspan></text></g></g></svg>