<svg xmlns="http://www.w3.org/2000/svg" viewBox="0 0 38 54.58"><defs><style>.cls-1{fill:#fff;stroke:#0092d2;stroke-miterlimit:10;stroke-width:2px;}.cls-2,.cls-3{fill:#0092d2;}.cls-3{font-size:8px;font-family:Circe-Bold, Circe;font-weight:700;}</style></defs><g id="Слой_2" data-name="Слой 2"><g id="Слой_1-2" data-name="Слой 1"><rect class="cls-1" x="1" y="1" width="36" height="36"/><polygon class="cls-2" points="14.67 8.55 9.33 8.55 9.19 11.25 14.81 11.25 14.67 8.55"/><polygon class="cls-2" points="14.88 12.66 9.12 12.66 9.01 14.84 14.99 14.84 14.88 12.66"/><path class="cls-2" d="M29.7,28.05V17.89L24.85,20V17.89L20,20V17.88l-3.37,1.46.45,8.71H15.67l-.61-11.8H8.94l-.61,11.8H7v1.4H31v-1.4Zm-8.49-1.88H19.8v-2h1.41Zm2.83,0h-1.4v-2H24Zm2.84,0H25.47v-2h1.41Z"/><text class="cls-3" transform="translate(4.22 51.2)">MANUF</text></g></g></svg>