<svg xmlns="http://www.w3.org/2000/svg" viewBox="0 0 38 54.58"><defs><style>.cls-1{fill:#fff;stroke:#0092d2;stroke-miterlimit:10;stroke-width:2px;}.cls-2,.cls-3{fill:#0092d2;}.cls-3{font-size:8px;font-family:Circe-Bold, Circe;font-weight:700;}</style></defs><g id="Слой_2" data-name="Слой 2"><g id="Слой_1-2" data-name="Слой 1"><rect class="cls-1" x="1" y="1" width="36" height="36"/><path class="cls-2" d="M29.13,8.85a6.33,6.33,0,0,0-8.95,0L15,14.07,20.89,20a7,7,0,0,1,4.47-1.65,7.06,7.06,0,0,1,2.76.57l1-1.11A6.33,6.33,0,0,0,29.13,8.85Z"/><path class="cls-2" d="M19.9,21,14,15.06,8.86,20.18a6.36,6.36,0,0,0,9,9l1-1a6.85,6.85,0,0,1-.57-2.76A6.93,6.93,0,0,1,19.9,21Z"/><path class="cls-2" d="M19.74,25.37a5.61,5.61,0,0,0,4.92,5.56V19.82A5.61,5.61,0,0,0,19.74,25.37Z"/><path class="cls-2" d="M26.07,19.82V30.93a5.6,5.6,0,0,0,0-11.11Z"/><text class="cls-3" transform="translate(1.56 51.2)">PHARMA</text></g></g></svg>