<svg xmlns="http://www.w3.org/2000/svg" viewBox="0 0 38 54.58"><defs><style>.cls-1{fill:#fff;stroke:#0092d2;stroke-miterlimit:10;stroke-width:2px;}.cls-2,.cls-3{fill:#0092d2;}.cls-3{font-size:8px;font-family:Circe-Bold, Circe;font-weight:700;}.cls-4{letter-spacing:-0.01em;}.cls-5{letter-spacing:0em;}.cls-6{letter-spacing:-0.01em;}</style></defs><g id="Слой_2" data-name="Слой 2"><g id="Слой_1-2" data-name="Слой 1"><rect class="cls-1" x="1" y="1" width="36" height="36"/><path class="cls-2" d="M21.41,9.47a5.09,5.09,0,0,1,4.81,5.82,4.93,4.93,0,0,1-4.83,4.27H18.53v2.78h2.86A7.66,7.66,0,0,0,29,13.76a8.28,8.28,0,0,0-.53-2A7.63,7.63,0,0,0,23.5,7.3a8.21,8.21,0,0,0-5.16.25A7.71,7.71,0,0,0,16,9a5.78,5.78,0,0,0-1,1.27h3.85A4.82,4.82,0,0,1,21.41,9.47Z"/><path class="cls-2" d="M15.4,18.63v4.21a23.29,23.29,0,0,1,2.28.66V18.63A7.59,7.59,0,0,0,24.08,12a.76.76,0,0,0-.75-.83H9.75A.75.75,0,0,0,9,12,7.58,7.58,0,0,0,15.4,18.63Z"/><path class="cls-2" d="M18.77,31a.38.38,0,0,0,.38-.44,2.67,2.67,0,0,0-1-1.64l-.26-.18-.25-.14v-.51a18,18,0,0,0-2.27-.71V28.6a2,2,0,0,0-.25.14l-.26.18a2.67,2.67,0,0,0-1,1.64.38.38,0,0,0,.37.44Z"/><path class="cls-2" d="M14.51,22.36V19.57A3.12,3.12,0,0,0,11.61,23a3.46,3.46,0,0,0,1.63,2.91,5.39,5.39,0,0,0,1.58.55h0a17,17,0,0,1,6.93,3.33,1.4,1.4,0,0,0,2-.15.83.83,0,0,0,.08-.12.82.82,0,0,0,.12-.2l0-.07.06-.17a1.41,1.41,0,0,0-.44-1.4,18.3,18.3,0,0,0-5.89-3.26c-.66-.23-1.33-.44-2-.61l-.75-.18C13.8,23.38,13.8,22.52,14.51,22.36Z"/><text class="cls-3" transform="translate(1.15 51.2)">MEDI<tspan class="cls-4" x="20.51" y="0">C</tspan><tspan class="cls-5" x="25.7" y="0">A</tspan><tspan class="cls-6" x="31.42" y="0">L</tspan></text></g></g></svg>