<svg xmlns="http://www.w3.org/2000/svg" viewBox="0 0 38 54.58"><defs><style>.cls-1{fill:#fff;stroke:#0092d2;stroke-miterlimit:10;stroke-width:2px;}.cls-2,.cls-3{fill:#0092d2;}.cls-3{font-size:8px;font-family:Circe-Bold, Circe;font-weight:700;}.cls-4{letter-spacing:-0.06em;}.cls-5{letter-spacing:-0.01em;}</style></defs><g id="Слой_2" data-name="Слой 2"><g id="Слой_1-2" data-name="Слой 1"><rect class="cls-1" x="1" y="1" width="36" height="36"/><path class="cls-2" d="M21.2,10.57,17.86,7.26a.88.88,0,0,0-1.25,0L14.23,9.67l4.56,4.56,2.41-2.42A.88.88,0,0,0,21.2,10.57Z"/><path class="cls-2" d="M30.74,20.11,27.43,16.8a.88.88,0,0,0-1.25,0l-2.41,2.41,4.56,4.56,2.41-2.41A.88.88,0,0,0,30.74,20.11Z"/><path class="cls-2" d="M22.53,20.45,19.48,23.5a3.52,3.52,0,0,1-5-5l3-3L13,10.91,9.94,14a10,10,0,1,0,14.12,14.1l3.05-3Z"/><text class="cls-3" transform="translate(5.96 51.2)">ME<tspan class="cls-4" x="11.81" y="0">T</tspan><tspan x="16.09" y="0">A</tspan><tspan class="cls-5" x="21.81" y="0">L</tspan></text></g></g></svg>