<svg xmlns="http://www.w3.org/2000/svg" viewBox="0 0 38 54.58"><defs><style>.cls-1{fill:#fff;stroke:#0092d2;stroke-miterlimit:10;stroke-width:2px;}.cls-2,.cls-3{fill:#0092d2;}.cls-3{font-size:8px;font-family:Circe-Bold, Circe;font-weight:700;}</style></defs><g id="Слой_2" data-name="Слой 2"><g id="Слой_1-2" data-name="Слой 1"><rect class="cls-1" x="1" y="1" width="36" height="36"/><path class="cls-2" d="M30.3,28.09H7.7a.7.7,0,0,0-.7.71v1.5a.7.7,0,0,0,.7.7H30.3a.7.7,0,0,0,.7-.7V28.8A.7.7,0,0,0,30.3,28.09Z"/><path class="cls-2" d="M11,26.69h5.63a1.88,1.88,0,0,0,1.87-1.88v-.23a.7.7,0,0,0-.7-.71h-8a.7.7,0,0,0-.7.71v.23A1.88,1.88,0,0,0,11,26.69Z"/><circle class="cls-2" cx="21.34" cy="17.08" r="2.34"/><path class="cls-2" d="M12,20.45,13.78,22a.7.7,0,0,0,1-.09l.45-.54-2.87-2.41-.45.54A.7.7,0,0,0,12,20.45Z"/><path class="cls-2" d="M25,9.66a.7.7,0,0,0-.09-1l-1.8-1.51a.7.7,0,0,0-1,.09l-.45.54,2.87,2.41Z"/><path class="cls-2" d="M13.25,17.84l2.88,2.41a1.4,1.4,0,0,0,2-.17l.43-.51a3.75,3.75,0,0,1,2.8-6.24,3.68,3.68,0,0,1,2,.56l.52-.63a1.4,1.4,0,0,0-.17-2L20.79,8.87a1.41,1.41,0,0,0-2,.17l-5.73,6.82a1.41,1.41,0,0,0,.17,2Z"/><path class="cls-2" d="M25.09,17.08a3.75,3.75,0,0,1-.36,1.6A3.36,3.36,0,0,1,24.88,25L20.7,26.69h6.75A6.19,6.19,0,0,0,24.87,15.8a3.87,3.87,0,0,1,.22,1.28Z"/><text class="cls-3" transform="translate(10.39 51.2)">R&amp;D</text></g></g></svg>