<svg xmlns="http://www.w3.org/2000/svg" viewBox="0 0 38 54.58"><defs><style>.cls-1{fill:#fff;stroke:#0092d2;stroke-miterlimit:10;stroke-width:2px;}.cls-2,.cls-3{fill:#0092d2;}.cls-3{font-size:8px;font-family:Circe-Bold, Circe;font-weight:700;}</style></defs><g id="Слой_2" data-name="Слой 2"><g id="Слой_1-2" data-name="Слой 1"><rect class="cls-1" x="1" y="1" width="36" height="36"/><path class="cls-2" d="M30.28,21.63l-2.21-1.72a6.93,6.93,0,0,0,0-1.82l2.21-1.72A1.09,1.09,0,0,0,30.54,15l-2.29-4a1.07,1.07,0,0,0-1.33-.48l-2.6,1.05a8.8,8.8,0,0,0-1.56-.91l-.4-2.76A1.06,1.06,0,0,0,21.3,7H16.7a1.07,1.07,0,0,0-1.06.91l-.39,2.77a9.28,9.28,0,0,0-1.56.91l-2.61-1.05A1.08,1.08,0,0,0,9.76,11l-2.3,4a1.07,1.07,0,0,0,.26,1.38L9.93,18.1a7.38,7.38,0,0,0,0,.9,7.54,7.54,0,0,0,0,.91L7.72,21.63A1.09,1.09,0,0,0,7.46,23l2.29,4a1.07,1.07,0,0,0,1.33.48l2.6-1.05a9.15,9.15,0,0,0,1.57.91l.39,2.76A1.07,1.07,0,0,0,16.7,31h4.6a1.06,1.06,0,0,0,1.06-.91l.4-2.77a9.7,9.7,0,0,0,1.56-.91l2.61,1.05a1,1,0,0,0,.39.07,1,1,0,0,0,.92-.54l2.31-4A1.09,1.09,0,0,0,30.28,21.63ZM19,23a4,4,0,1,1,4-4A4,4,0,0,1,19,23Z"/><text class="cls-3" transform="translate(9.82 51.2)">OEM</text></g></g></svg>