<svg xmlns="http://www.w3.org/2000/svg" viewBox="0 0 835.75 34.72"><defs><style>.cls-1{fill:none;stroke:#2e2e2e;stroke-miterlimit:10;}</style></defs><g id="Слой_2" data-name="Слой 2"><g id="rulers"><g id="ruler_6" data-name="ruler 6"><line class="cls-1" x1="835.25" x2="835.25" y2="34.72"/><line class="cls-1" x1="0.5" x2="0.5" y2="34.72"/><line class="cls-1" x1="30.79" y1="28.21" x2="30.79" y2="34.72"/><line class="cls-1" x1="34.04" y1="28.21" x2="34.04" y2="34.72"/><line class="cls-1" x1="64.33" y1="28.21" x2="64.33" y2="34.72"/><line class="cls-1" x1="67.58" y1="28.21" x2="67.58" y2="34.72"/><line class="cls-1" x1="97.87" y1="28.21" x2="97.87" y2="34.72"/><line class="cls-1" x1="101.11" y1="28.21" x2="101.11" y2="34.72"/><line class="cls-1" x1="131.41" y1="28.21" x2="131.41" y2="34.72"/><line class="cls-1" x1="134.65" y1="28.21" x2="134.65" y2="34.72"/><line class="cls-1" x1="164.94" x2="164.94" y2="34.72"/><line class="cls-1" x1="168.19" x2="168.19" y2="34.72"/><line class="cls-1" x1="198.48" y1="28.21" x2="198.48" y2="34.72"/><line class="cls-1" x1="201.73" y1="28.21" x2="201.73" y2="34.72"/><line class="cls-1" x1="232.02" y1="28.21" x2="232.02" y2="34.72"/><line class="cls-1" x1="235.27" y1="28.21" x2="235.27" y2="34.72"/><line class="cls-1" x1="265.56" y1="28.21" x2="265.56" y2="34.72"/><line class="cls-1" x1="268.8" y1="28.21" x2="268.8" y2="34.72"/><line class="cls-1" x1="299.1" y1="28.21" x2="299.1" y2="34.72"/><line class="cls-1" x1="302.34" y1="28.21" x2="302.34" y2="34.72"/><line class="cls-1" x1="332.63" x2="332.63" y2="34.72"/><line class="cls-1" x1="335.88" x2="335.88" y2="34.72"/><line class="cls-1" x1="366.17" y1="28.21" x2="366.17" y2="34.72"/><line class="cls-1" x1="369.42" y1="28.21" x2="369.42" y2="34.72"/><line class="cls-1" x1="399.71" y1="28.21" x2="399.71" y2="34.72"/><line class="cls-1" x1="402.96" y1="28.21" x2="402.96" y2="34.72"/><line class="cls-1" x1="433.25" y1="28.21" x2="433.25" y2="34.72"/><line class="cls-1" x1="436.49" y1="28.21" x2="436.49" y2="34.72"/><line class="cls-1" x1="466.79" y1="28.21" x2="466.79" y2="34.72"/><line class="cls-1" x1="470.03" y1="28.21" x2="470.03" y2="34.72"/><line class="cls-1" x1="500.32" x2="500.32" y2="34.72"/><line class="cls-1" x1="503.57" x2="503.57" y2="34.72"/><line class="cls-1" x1="533.86" y1="28.21" x2="533.86" y2="34.72"/><line class="cls-1" x1="537.11" y1="28.21" x2="537.11" y2="34.72"/><line class="cls-1" x1="567.4" y1="28.21" x2="567.4" y2="34.72"/><line class="cls-1" x1="570.65" y1="28.21" x2="570.65" y2="34.72"/><line class="cls-1" x1="600.94" y1="28.21" x2="600.94" y2="34.72"/><line class="cls-1" x1="604.19" y1="28.21" x2="604.19" y2="34.72"/><line class="cls-1" x1="634.48" y1="28.21" x2="634.48" y2="34.72"/><line class="cls-1" x1="637.72" y1="28.21" x2="637.72" y2="34.72"/><line class="cls-1" x1="668.01" x2="668.01" y2="34.72"/><line class="cls-1" x1="671.26" x2="671.26" y2="34.72"/><line class="cls-1" x1="701.55" y1="28.21" x2="701.55" y2="34.72"/><line class="cls-1" x1="704.8" y1="28.21" x2="704.8" y2="34.72"/><line class="cls-1" x1="735.09" y1="28.21" x2="735.09" y2="34.72"/><line class="cls-1" x1="738.34" y1="28.21" x2="738.34" y2="34.72"/><line class="cls-1" x1="768.63" y1="28.21" x2="768.63" y2="34.72"/><line class="cls-1" x1="771.88" y1="28.21" x2="771.88" y2="34.72"/><line class="cls-1" x1="802.17" y1="28.21" x2="802.17" y2="34.72"/><line class="cls-1" x1="805.41" y1="28.21" x2="805.41" y2="34.72"/></g></g></g></svg>