<svg xmlns="http://www.w3.org/2000/svg" viewBox="0 0 512 512"><defs><style>.cls-1{fill:#003d74;}.cls-2{fill:#0092d2;}</style></defs><g id="Слой_2" data-name="Слой 2"><g id="Outline"><path class="cls-1" d="M467,121H361V105a105,105,0,0,0-210,0v16H45A45.05,45.05,0,0,0,0,166V467a45.05,45.05,0,0,0,45,45H467a45.05,45.05,0,0,0,45-45V166A45.05,45.05,0,0,0,467,121ZM181,105a75,75,0,0,1,150,0v16H301V105a45,45,0,0,0-90,0v16H181Zm90,0v16H241V105a15,15,0,0,1,30,0ZM121,482H45a15,15,0,0,1-15-15V346a74.59,74.59,0,0,0,45,15H93.58A45.25,45.25,0,0,0,121,388.42Zm15-121a15,15,0,0,1-15-15V301h30v45A15,15,0,0,1,136,361ZM361,482H151V388.42A45.25,45.25,0,0,0,178.42,361H333.58A45.25,45.25,0,0,0,361,388.42V482Zm15-121a15,15,0,0,1-15-15V301h30v45A15,15,0,0,1,376,361ZM482,467a15,15,0,0,1-15,15H391V388.42A45.25,45.25,0,0,0,418.42,361H437a74.59,74.59,0,0,0,45-15Zm0-181a45.05,45.05,0,0,1-45,45H421V301h15a15,15,0,0,0,0-30H316a15,15,0,0,0,0,30h15v30H181V301h15a15,15,0,0,0,0-30H76a15,15,0,0,0,0,30H91v30H75a45.05,45.05,0,0,1-45-45V166a15,15,0,0,1,15-15H467a15,15,0,0,1,15,15Z"/><path class="cls-2" d="M452,237.69V196a15,15,0,0,0-15-15H75a15,15,0,0,0-15,15v41.69Z"/></g></g></svg>