<svg xmlns="http://www.w3.org/2000/svg" viewBox="0 0 512 512"><defs><style>.cls-1{fill:#003d74;}.cls-2{fill:#0092d2;}</style></defs><g id="Слой_2" data-name="Слой 2"><g id="Outline"><path class="cls-1" d="M437,377V74.26A74.34,74.34,0,0,0,362.74,0H52A52.55,52.55,0,0,0,0,52.5V135H75v33.26A90,90,0,0,0,30,324V450l45-30v17.71A74.34,74.34,0,0,0,149.26,512H460a52.55,52.55,0,0,0,52-52.49V377ZM30,52.5a22.5,22.5,0,0,1,45,0V105H30ZM90,197a60,60,0,1,1-60,60A60.07,60.07,0,0,1,90,197ZM60,341.85a90,90,0,0,0,60,0V394L90,374,60,394Zm45,95.89V420l45,30V324a90,90,0,0,0-45-155.76V52.5A52,52,0,0,0,99.92,30H362.74A44.3,44.3,0,0,1,407,74.26V459.5a52.17,52.17,0,0,0,5.08,22.5H149.26A44.3,44.3,0,0,1,105,437.74ZM482,459.5a22.5,22.5,0,0,1-45,0V407h45Z"/><path class="cls-1" d="M225,90H360v30H225Z"/><path class="cls-1" d="M225,167H360v30H225Z"/><path class="cls-1" d="M225,242H360v30H225Z"/><path class="cls-1" d="M225,317H360v30H225Z"/><path class="cls-1" d="M225,392H360v30H225Z"/><circle class="cls-2" cx="90" cy="257" r="28.02"/></g></g></svg>