<svg xmlns="http://www.w3.org/2000/svg" viewBox="0 0 512 512"><defs><style>.cls-1{fill:#003d74;}.cls-2{fill:#0092d2;}</style></defs><g id="Слой_2" data-name="Слой 2"><g id="Outline"><path class="cls-1" d="M511.91,415.34l-10-90A15,15,0,0,0,487,312H477V135A105.12,105.12,0,0,0,372,30H342.42a45,45,0,0,0-84.84,0H132.42A45,45,0,0,0,45,45V75A15,15,0,0,0,60,90H75v23.26A90.13,90.13,0,0,0,0,202V497a15,15,0,0,0,15,15H165a15,15,0,0,0,15-15V422h30v75a15,15,0,0,0,15,15H375a15,15,0,0,0,15-15V202a90.13,90.13,0,0,0-75-88.74V90h15a15,15,0,0,0,15-15V60h27a75.09,75.09,0,0,1,75,75V312H437a15,15,0,0,0-14.91,13.34l-10,90A15,15,0,0,0,427,432h70a15,15,0,0,0,14.91-16.66ZM75,45a15,15,0,0,1,30,0V60H75Zm75,437H30V452H150Zm0-60H30V242H150Zm0-210H30V202a60,60,0,0,1,120,0Zm60,180H180V282h30Zm0-190v50H180V202a90.13,90.13,0,0,0-75-88.74V90h15a15,15,0,0,0,15-15V60H255V75a15,15,0,0,0,15,15h15v23.26A90.13,90.13,0,0,0,210,202ZM360,482H240V452H360Zm0-60H240V242H360Zm0-220v10H240V202a60,60,0,0,1,120,0ZM315,60H285V45a15,15,0,0,1,30,0ZM443.76,402l6.67-60h23.14l6.67,60Z"/><path class="cls-1" d="M275,317h50a15,15,0,0,0,0-30H275a15,15,0,0,0,0,30Z"/><path class="cls-1" d="M275,377h50a15,15,0,0,0,0-30H275a15,15,0,0,0,0,30Z"/><rect class="cls-2" x="52.59" y="262.95" width="37.41" height="129.05"/></g></g></svg>