<svg xmlns="http://www.w3.org/2000/svg" viewBox="0 0 512 372.42"><defs><style>.cls-1{fill:#0092d2;}.cls-2{fill:#003d74;}</style></defs><g id="Слой_2" data-name="Слой 2"><g id="Outline"><rect class="cls-1" x="156.04" y="-36.33" width="39.09" height="231.14" transform="translate(96.34 254.83) rotate(-90)"/><path class="cls-2" d="M214.8,181.54h60.75a15,15,0,1,0,0-30H214.8a15,15,0,1,0,0,30Z"/><path class="cls-2" d="M275.55,219.82H234.74a15,15,0,1,0,0,30h40.81a15,15,0,1,0,0-30Z"/><path class="cls-2" d="M477,163.08h-6L452,79.52A24.88,24.88,0,0,0,427.64,60H351.17V35a35.06,35.06,0,0,0-35-35H35A35.06,35.06,0,0,0,0,35V281.14a35.06,35.06,0,0,0,35,35H63.37a71.3,71.3,0,0,0,139.39,0h144a71.29,71.29,0,0,0,139.65-1.29A35.07,35.07,0,0,0,512,281.14v-83A35.06,35.06,0,0,0,477,163.08ZM133.06,342.41c-28.82,0-49-29.08-38.45-56.27,16.49-42.07,79.72-30.7,79.72,15A41.3,41.3,0,0,1,133.06,342.41Zm188.1-56.27H202.76a71.29,71.29,0,0,0-139.39,0H35a5,5,0,0,1-5-5V35a5,5,0,0,1,5-5H65v-.37H290.56V30h25.59a5,5,0,0,1,5,5Zm30-196.1h72.47l16.55,73h-89ZM454.89,316.15a41.32,41.32,0,0,1-38.44,26.26c-29,0-49-29.26-38.45-56.27a41.35,41.35,0,0,1,38.45-26.27C445.47,259.87,465.48,289.24,454.89,316.15Zm27.09-43a71.27,71.27,0,0,0-130.81-.58V193.09H477a5,5,0,0,1,5,5Z"/></g></g></svg>