<svg xmlns="http://www.w3.org/2000/svg" viewBox="0 0 512 510"><defs><style>.cls-1{fill:#003d74;}.cls-2{fill:#0092d2;}</style></defs><g id="Слой_2" data-name="Слой 2"><g id="Outline"><path class="cls-1" d="M424.58,270a45,45,0,1,0,0-30H310V200h97a15,15,0,0,0,9.6-3.48L444,173.67a45,45,0,1,0-19.21-23L401.57,170H310V60h44.58a45,45,0,1,0,0-30H310V15A15,15,0,0,0,295,0H215a15,15,0,0,0-15,15V36.87a222.19,222.19,0,0,0-60.4,25L124.18,46.4a15,15,0,0,0-21.21,0L46.4,103a15,15,0,0,0,0,21.21L61.82,139.6a222.19,222.19,0,0,0-25,60.4H15A15,15,0,0,0,0,215v80a15,15,0,0,0,15,15H36.87a222.19,222.19,0,0,0,25,60.4L46.4,385.82a15,15,0,0,0,0,21.21L103,463.59a15,15,0,0,0,21.21,0l15.42-15.41A221.85,221.85,0,0,0,200,473.12V495a15,15,0,0,0,15,15h80a15,15,0,0,0,15-15V480h44.58a45,45,0,1,0,0-30H310V340h91.57l23.24,19.36a45.07,45.07,0,1,0,19.21-23L416.6,313.48A15,15,0,0,0,407,310H310V270ZM467,240a15,15,0,1,1-15,15A15,15,0,0,1,467,240Zm0-120a15,15,0,1,1-15,15A15,15,0,0,1,467,120ZM397,30a15,15,0,1,1-15,15A15,15,0,0,1,397,30Zm0,420a15,15,0,1,1-15,15A15,15,0,0,1,397,450Zm70-90a15,15,0,1,1-15,15A15,15,0,0,1,467,360Zm-187-3.12A103.2,103.2,0,0,1,255,360a105,105,0,0,1,0-210,103.2,103.2,0,0,1,25,3.12ZM230,480V461.09a15,15,0,0,0-12.16-14.73,192.92,192.92,0,0,1-71.94-29.72,15,15,0,0,0-19,1.82l-13.31,13.31L78.22,396.42l13.32-13.31a15,15,0,0,0,1.82-19,193,193,0,0,1-29.72-71.94A15,15,0,0,0,48.91,280H30V230H48.91a15,15,0,0,0,14.73-12.16A193.07,193.07,0,0,1,93.35,145.9a15,15,0,0,0-1.81-19L78.22,113.58l35.36-35.36,13.31,13.32a15,15,0,0,0,19,1.82,192.92,192.92,0,0,1,71.94-29.72A15,15,0,0,0,230,48.91V30h50v92.4a132.34,132.34,0,0,0-25-2.4c-74.44,0-135,60.56-135,135s60.56,135,135,135a131.53,131.53,0,0,0,25-2.4V480Z"/><path class="cls-2" d="M255.41,318.58a63.69,63.69,0,0,1-15.54,1.95,65.29,65.29,0,0,1,0-130.57,64.17,64.17,0,0,1,15.54,1.94Z"/></g></g></svg>