<svg xmlns="http://www.w3.org/2000/svg" viewBox="0 0 512 512"><defs><style>.cls-1{fill:#003d74;}.cls-2{fill:#0092d2;}</style></defs><g id="Слой_2" data-name="Слой 2"><g id="Outline"><path class="cls-1" d="M497,90H482V45a15,15,0,0,0-30,0V90H437a15,15,0,0,0-15,15v90a45.07,45.07,0,0,0,30,42.42V457a25,25,0,0,1-25,25H326a25,25,0,0,1-25-25v-7h25a35,35,0,0,0,35-35V387.42A45.06,45.06,0,0,0,391,345V45A45.05,45.05,0,0,0,346,0H166a45.05,45.05,0,0,0-45,45V345a45.07,45.07,0,0,0,30,42.42V415a35,35,0,0,0,35,35h25v7a25,25,0,0,1-25,25H85a25,25,0,0,1-25-25V237.42A45.07,45.07,0,0,0,90,195V105A15,15,0,0,0,75,90H60V45a15,15,0,0,0-30,0V90H15A15,15,0,0,0,0,105v90a45.07,45.07,0,0,0,30,42.42V457a55.06,55.06,0,0,0,55,55H186a55.06,55.06,0,0,0,55-55v-7h30v7a55.06,55.06,0,0,0,55,55H427a55.06,55.06,0,0,0,55-55V237.42A45.07,45.07,0,0,0,512,195V105a15,15,0,0,0-15-15ZM45,210a15,15,0,0,1-15-15V120H60v75A15,15,0,0,1,45,210ZM151,345V45a15,15,0,0,1,15-15H346a15,15,0,0,1,15,15V345a15,15,0,0,1-15,15H166A15,15,0,0,1,151,345Zm35,75a5,5,0,0,1-5-5V390H331v25a5,5,0,0,1-5,5ZM482,195a15,15,0,0,1-30,0V120h30Z"/><path class="cls-1" d="M316,60H196a15,15,0,0,0-15,15v80a15,15,0,0,0,15,15H316a15,15,0,0,0,15-15V75A15,15,0,0,0,316,60Zm-15,80H211V90h90Z"/><circle class="cls-2" cx="253.95" cy="262.95" r="53.31" transform="translate(-81.3 117.2) rotate(-22.5)"/></g></g></svg>