<svg xmlns="http://www.w3.org/2000/svg" viewBox="0 0 449.99 512"><defs><style>.cls-1{fill:#003d74;}.cls-2{fill:#0092d2;}</style></defs><g id="Слой_2" data-name="Слой 2"><g id="Outline"><path class="cls-1" d="M435,360H255a74.88,74.88,0,0,0-118.66-1.59,60.21,60.21,0,0,1-46-64.73c3.07-30.1,31.23-53.68,64.11-53.68H213a45,45,0,0,0,46.18,20.12l8.8,15.23a45,45,0,1,0,77.94-45l-8.79-15.23a45.06,45.06,0,0,0,4.77-51.73l-45-77.95a45.07,45.07,0,0,0-47.19-21.73L233.43,35.49l13-7.5a15,15,0,1,0-15-26L127.5,62a15,15,0,0,0,15,26l13-7.5,16.27,28.19A45.14,45.14,0,0,0,162.61,150H156C77.6,150,8.3,207.41.73,285.07A150.13,150.13,0,0,0,120,447v35H105a15,15,0,0,0,0,30H285a15,15,0,0,0,0-30H270V450h15a75.14,75.14,0,0,0,73.5-60H435a15,15,0,0,0,0-30ZM314.45,265.84A15,15,0,0,1,294,260.35l-7.5-13,13-7.5,13-7.5,7.5,13A15,15,0,0,1,314.45,265.84ZM250.44,95a15,15,0,0,1,20.49,5.49l45,77.95a15,15,0,0,1-5.49,20.49l-52,30A15,15,0,0,1,238,223.39l-45-77.95A15,15,0,0,1,198.48,125Zm-43-44.46,15,26-26,15-15-26ZM120,405v11.19C63.87,401.66,24.79,347.44,30.58,288,36.48,227.44,91.5,180,155.9,180h22.4l17.32,30H154.43c-46.86,0-89.18,33.86-94,80.64a90.28,90.28,0,0,0,62.05,95.07A74.86,74.86,0,0,0,120,405Zm120,77H150V405a45,45,0,0,1,90,0Zm45-62H270V405a75.63,75.63,0,0,0-1.5-15h58.93A45.08,45.08,0,0,1,285,420Z"/><path class="cls-2" d="M219.81,457.27H170.18V414.81a24.82,24.82,0,0,1,49.63,0Z"/></g></g></svg>