<svg xmlns="http://www.w3.org/2000/svg" viewBox="0 0 512 512"><defs><style>.cls-1{fill:#0092d2;}.cls-2{fill:#003d74;}</style></defs><g id="Слой_2" data-name="Слой 2"><g id="Outline"><path class="cls-1" d="M29.39,461.39l-25,25a15,15,0,0,0,21.22,21.22l25-25a15,15,0,0,0-21.22-21.22Z"/><path class="cls-1" d="M9.29,429.42l16,8a15,15,0,1,0,13.42-26.84l-16-8A15,15,0,0,0,9.29,429.42Z"/><path class="cls-1" d="M101.41,473.29a15,15,0,1,0-26.83,13.42l8,16a15,15,0,1,0,26.83-13.42Z"/><path class="cls-1" d="M49.77,388.74a15,15,0,0,0,28.46-9.48l-8-24a15,15,0,1,0-28.46,9.48Z"/><path class="cls-1" d="M156.74,441.77l-24-8a15,15,0,1,0-9.48,28.46l24,8a15,15,0,0,0,9.48-28.46Z"/><path class="cls-2" d="M497,425H446.21l-8.85-8.86a52.8,52.8,0,0,0-74.72,0,30.25,30.25,0,1,1-42.78-42.78L384.18,309a75.11,75.11,0,0,0,0-106.08L382.24,201c33.91-30.83,69.8-60.38,105.59-88.42a63,63,0,1,0-89.6-86.92c-35.34,48-78.29,97.16-131.31,150.18-39.38,39.38-81.69,80.59-136.5,149.09a40.25,40.25,0,0,0-5.59,41L61.39,429.39C52,438.82,58.68,455,72,455a15,15,0,0,0,10.61-4.39l63.44-63.44a40.19,40.19,0,0,0,41-5.59,1433.69,1433.69,0,0,0,120-107.42c32.34-32.33,39.32-39.45,53.21-52.69l2.7,2.71a45,45,0,0,1,0,63.64l-64.32,64.32a60.26,60.26,0,0,0,85.22,85.22,22.78,22.78,0,0,1,32.28,0l8.86,8.85V497a15,15,0,0,0,15,15h57a15,15,0,0,0,15-15V440a15,15,0,0,0-15-15ZM422.39,43.47a33,33,0,0,1,36.78-11.86L445.39,45.39C436,54.82,442.68,71,456,71a15,15,0,0,0,10.61-4.39l13.78-13.79A32.88,32.88,0,0,1,469.33,89c-23.43,18.36-44.91,35.79-64.84,52.66a88.67,88.67,0,0,1-33.71-33.39c18.78-21.93,35.92-43.45,51.61-64.79ZM168.3,358.15a10.28,10.28,0,0,1-14.45-14.45c24.79-31,51.11-61.19,78.52-90.12l26,26c-27.23,25.76-57.44,52.43-90.11,78.53ZM280,258.77,253.23,232c32.86-33.2,59.51-58.52,96.93-100.24a118.13,118.13,0,0,0,30.54,30.39C333.86,203.34,311.24,228,280,258.77ZM482,482H455V455h27Z"/></g></g></svg>