<svg xmlns="http://www.w3.org/2000/svg" viewBox="0 0 512 512"><defs><style>.cls-1{fill:#003d74;}.cls-2{fill:#0092d2;}</style></defs><g id="Слой_2" data-name="Слой 2"><g id="Outline"><path class="cls-1" d="M512,15A15,15,0,0,0,497,0H412.13a15,15,0,0,0-10.61,4.39L215.74,190.18A165,165,0,0,0,48.26,230.36c-64.35,64.35-64.35,169,0,233.38s169,64.35,233.38,0a165,165,0,0,0,40.18-167.48l12.84-12.84,48.59-9.72A15,15,0,0,0,395,261.93l8.65-43.23,43.23-8.65a15,15,0,0,0,11.77-11.78L466.88,157H497a15,15,0,0,0,15-15V15ZM482,127H454.56a15,15,0,0,0-14.71,12.07L431.2,182.6,388,191.24A15,15,0,0,0,376.2,203l-8.64,43.23-43.24,8.65a15,15,0,0,0-7.66,4.1L293.9,281.75a15,15,0,0,0-3.37,16.08,135,135,0,0,1-30.11,144.7c-52.64,52.64-138.29,52.65-191,0s-52.64-138.3,0-190.95a135.05,135.05,0,0,1,144.71-30.11,15,15,0,0,0,16.07-3.37L418.35,30h42.43L274.23,216.56a15,15,0,1,0,21.21,21.21L482,51.22Z"/><path class="cls-1" d="M154.34,357.66a45,45,0,1,0,0,63.65A45.06,45.06,0,0,0,154.34,357.66Zm-21.22,42.43a15,15,0,1,1,0-21.21A15,15,0,0,1,133.12,400.09Z"/><path class="cls-2" d="M243.66,272.32a96.28,96.28,0,0,0-136.15,0L243.66,408.48A96.28,96.28,0,0,0,243.66,272.32Z"/></g></g></svg>