<svg xmlns="http://www.w3.org/2000/svg" viewBox="0 0 430 512"><defs><style>.cls-1{fill:#003d74;}.cls-2{fill:#0092d2;}</style></defs><g id="Слой_2" data-name="Слой 2"><g id="Outline"><path class="cls-1" d="M304.46,329.17A114.46,114.46,0,0,0,330,257V209.66q10.65-4.14,21.29-9A15,15,0,0,0,360,187V145a15,15,0,0,0-15-15h-5.89A123.44,123.44,0,0,0,314.2,69,126.3,126.3,0,0,0,260,28.47V15A15,15,0,0,0,245,0H185a15,15,0,0,0-15,15V28.47A126.3,126.3,0,0,0,115.8,69a123.44,123.44,0,0,0-24.91,61H85a15,15,0,0,0-15,15v42a15,15,0,0,0,8.71,13.62q10.64,4.9,21.29,9V257a114.41,114.41,0,0,0,25.54,72.17A174.82,174.82,0,0,0,0,497a15,15,0,0,0,15,15H415a15,15,0,0,0,15-15A174.82,174.82,0,0,0,304.46,329.17ZM170,61.45V75a15,15,0,0,0,30,0V30h30V75a15,15,0,0,0,30,0V61.45A95.56,95.56,0,0,1,308.79,130H121.21A95.56,95.56,0,0,1,170,61.45ZM100,177.27V160H330v17.27C252.71,210.51,177.29,210.51,100,177.27ZM30.77,482A144.87,144.87,0,0,1,99.36,373.28L142.84,482ZM200,482H175.15L126.5,360.37a145.93,145.93,0,0,1,26.42-6.61A114.18,114.18,0,0,0,200,371ZM130,257V219.78a307.89,307.89,0,0,0,85,12.14,307.89,307.89,0,0,0,85-12.14V257a85,85,0,0,1-170,0ZM230,482V371a114.18,114.18,0,0,0,47.08-17.26,146.14,146.14,0,0,1,26.42,6.61L254.84,482Zm57.16,0,43.48-108.72A144.87,144.87,0,0,1,399.23,482Z"/><path class="cls-2" d="M159.85,282a65.73,65.73,0,0,0,110.3,0Z"/></g></g></svg>