<svg xmlns="http://www.w3.org/2000/svg" viewBox="0 0 443.14 512"><defs><style>.cls-1{fill:#003d74;}.cls-2{fill:#0092d2;}</style></defs><g id="Слой_2" data-name="Слой 2"><g id="Outline"><path class="cls-1" d="M68.86,344.29H305.43v30H68.86Z"/><path class="cls-1" d="M68.86,413.14H305.43v30H68.86Z"/><path class="cls-1" d="M374.29,344.29V0H0V462.57A49.48,49.48,0,0,0,49.43,512H393.71a49.48,49.48,0,0,0,49.43-49.43V344.29ZM49.43,482A19.46,19.46,0,0,1,30,462.57V30H344.28V462.57a49.19,49.19,0,0,0,4,19.43Zm363.71-19.43a19.43,19.43,0,0,1-38.86,0V374.29h38.86v88.28Z"/><path class="cls-1" d="M129.78,196.58V316.92l57.36-34.42,57.37,34.42V196.58a83.86,83.86,0,1,0-114.73,0Zm84.73,67.35-27.37-16.42-27.36,16.42V214.75a83.52,83.52,0,0,0,54.73,0ZM187.14,81.64a53.86,53.86,0,1,1-53.85,53.86,53.92,53.92,0,0,1,53.85-53.86Z"/><circle class="cls-2" cx="187.14" cy="133.97" r="33.83"/></g></g></svg>