<svg xmlns="http://www.w3.org/2000/svg" viewBox="0 0 512 512"><defs><style>.cls-1{fill:#003d74;}.cls-2{fill:#0092d2;}</style></defs><g id="Слой_2" data-name="Слой 2"><g id="Outline"><path class="cls-1" d="M512,295a45,45,0,0,0-24.65-40.11A45,45,0,0,0,447,190H437V167.54a94.85,94.85,0,0,0,45-80.69A94.36,94.36,0,0,0,428.58,1.52,15,15,0,0,0,407,15V68.15L387,79.58,367,68.15V15A15,15,0,0,0,345.42,1.52a94.83,94.83,0,0,0-43,128.55,115,115,0,0,0-103.81,74.55l-2,5.38h-28A35.06,35.06,0,0,0,137,190H15A15,15,0,0,0,0,205V425a15,15,0,0,0,15,15H137a35.06,35.06,0,0,0,31.62-20h27.76a67.69,67.69,0,0,0,61.85,40H337v2a50,50,0,0,0,100,0v-3.13a45,45,0,0,0,30.35-63.76,44.93,44.93,0,0,0,20-60A45,45,0,0,0,512,295ZM337,45.31V76.85a15,15,0,0,0,7.56,13l35,20a15,15,0,0,0,14.88,0l35-20a15,15,0,0,0,7.56-13V45.31a64.93,64.93,0,0,1-21.58,99.92A15,15,0,0,0,407,158.71V190H367V158.71a15,15,0,0,0-8.42-13.48A64.93,64.93,0,0,1,337,45.31ZM137,410H30V220H137a5,5,0,0,1,5,5V405A5,5,0,0,1,137,410Zm250,72a20,20,0,0,1-20-20v-2h40v2A20,20,0,0,1,387,482Zm40-52H258.23a37.76,37.76,0,0,1-36.68-28.64A15,15,0,0,0,207,390H172V240h35a15,15,0,0,0,14-9.73l5.67-15.11A85.4,85.4,0,0,1,306.3,160h20.21A95.43,95.43,0,0,0,337,167.54V190H327a15,15,0,0,0,0,30H447a15,15,0,0,1,0,30H437a15,15,0,0,0,0,30h30a15,15,0,0,1,0,30H437a15,15,0,0,0,0,30h10a15,15,0,0,1,0,30H417a15,15,0,0,0,0,30h10a15,15,0,0,1,0,30Z"/><rect class="cls-2" x="60" y="243.46" width="39.09" height="140.74"/></g></g></svg>