<svg xmlns="http://www.w3.org/2000/svg" viewBox="0 0 300.25 63"><defs><style>.cls-1{fill:#fff;}</style></defs><g id="Слой_2" data-name="Слой 2"><g id="Слой_1-2" data-name="Слой 1"><path class="cls-1" d="M291.67,17.34l-7,17.15a1.2,1.2,0,0,0-.2.8l-.2.4-.2-.4c0-.2-.2-.6-.2-.8l-7-17.15h-9l11.76,29.31-5,11.17h9l16.55-40.48Z"/><path class="cls-1" d="M225.48,18.94a11.31,11.31,0,0,0-6-2.19,12.81,12.81,0,0,0-10.37,3.59V17.15H201v29.3h8.17V31.1c0-3.39.6-4.38,1.2-5.18a5.56,5.56,0,0,1,5-2.39,6.05,6.05,0,0,1,5.18,2.59,9,9,0,0,1,.8,3.59V46.45h8.17V28.71C229.47,24.12,228.27,20.93,225.48,18.94Z"/><path class="cls-1" d="M185.61,17.54a16.66,16.66,0,0,0-12.36.6,13.85,13.85,0,0,0-6.38,5.78,14.91,14.91,0,0,0-2,8,14.85,14.85,0,0,0,2,8,14.52,14.52,0,0,0,5.58,5.39,18.14,18.14,0,0,0,7.78,2,15.09,15.09,0,0,0,4.18-.6A27.35,27.35,0,0,0,188,45.26a14.52,14.52,0,0,0,5.59-5.39,14.85,14.85,0,0,0,2-8A14.87,14.87,0,0,0,185.61,17.54ZM187.8,32.3c-.2,2.59-1,4.78-2.59,6.18A9.45,9.45,0,0,1,180,40.27a7.47,7.47,0,0,1-5.18-1.79,8.85,8.85,0,0,1-2.6-6.18,7.64,7.64,0,0,1,3.19-7,8.17,8.17,0,0,1,4.39-1.4,8.83,8.83,0,0,1,4.58,1.4A7.18,7.18,0,0,1,187.8,32.3Z"/><path class="cls-1" d="M155.31,18.94a11.37,11.37,0,0,0-6-2.19h-1.4a10.74,10.74,0,0,0-8.37,4.18l-.4.6h-.8a8.6,8.6,0,0,0-2.19-2.39,11.37,11.37,0,0,0-6-2.19,10.48,10.48,0,0,0-9.37,3.58v-3h-8.18V46.85h8.18V31.1c0-3.19.39-4,1-5a5.05,5.05,0,0,1,4.79-2.4,5.59,5.59,0,0,1,4.78,2.6,6.82,6.82,0,0,1,.8,4V46.65h8.17V30.9c0-3,.4-4,1-5a5.44,5.44,0,0,1,4.79-2.39,5.26,5.26,0,0,1,4.58,2.59,6.08,6.08,0,0,1,.8,3V46.45h8.17V28.51a17.38,17.38,0,0,0-.59-4.59A10.55,10.55,0,0,0,155.31,18.94Z"/><path class="cls-1" d="M260.17,37.68a12.26,12.26,0,0,1-7.77,3.59A9.13,9.13,0,0,1,245,38.68a8.36,8.36,0,0,1-1.79-3.19h22.53v-.2a20.72,20.72,0,0,0,.39-3.39,21.29,21.29,0,0,0-.59-4.19,15.34,15.34,0,0,0-5.59-8A13.5,13.5,0,0,0,253.4,17a15.79,15.79,0,0,0-15.75,7,15.38,15.38,0,0,0-2.2,8.78,14.65,14.65,0,0,0,3.79,9.77c4.19,4.58,10,4.78,11.76,5,8,.2,13.36-4.79,14.56-5.78Zm-14-12.36a7.62,7.62,0,0,1,4.38-1.4,8.86,8.86,0,0,1,4.59,1.4A9.72,9.72,0,0,1,258,28.91H243.63A5.8,5.8,0,0,1,246.22,25.32Z"/><path class="cls-1" d="M57.22,0a31.5,31.5,0,1,0,31.5,31.5A31.44,31.44,0,0,0,57.22,0Zm0,43.06A11.76,11.76,0,1,1,69,31.3,11.91,11.91,0,0,1,57.22,43.06Z"/><path class="cls-1" d="M25.52,9V54.83H14.35L0,9Z"/></g></g></svg>