<svg xmlns="http://www.w3.org/2000/svg" viewBox="0 0 141.89 123.38"><defs><style>.cls-1{fill:#dafd01;}.cls-2{fill:#fff;}</style></defs><g id="Слой_2" data-name="Слой 2"><g id="decals"><polygon class="cls-1" points="67.63 65.32 71.24 98.3 74.84 65.32 71.24 63.24 67.63 65.32"/><polygon class="cls-1" points="69.15 59.64 69.15 55.48 38.79 42.1 65.55 61.72 69.15 59.64"/><polygon class="cls-1" points="73.32 59.64 76.92 61.72 103.68 42.1 73.32 55.48 73.32 59.64"/><path class="cls-2" d="M85.27,46.67l-4.18,1.14a37.69,37.69,0,0,1-19.72,0L56.86,46.6l14.28,6.31Z"/><path class="cls-2" d="M52,55.77l3.07,3a37.64,37.64,0,0,1,9.87,17.08l1.2,4.51L64.41,64.88Z"/><path class="cls-2" d="M76.38,80.4l1.2-4.51a37.64,37.64,0,0,1,9.87-17.08l3.07-3L78.06,64.88Z"/><polygon class="cls-2" points="38.79 26.78 44.7 26.78 38.79 31.89 38.79 33.59 47.3 33.59 47.3 31.89 41.4 31.89 47.3 26.78 47.3 25.08 38.79 25.08 38.79 26.78"/><path class="cls-2" d="M56.41,25.08H53.58a2.51,2.51,0,0,0-2.84,2.84v2.83a2.51,2.51,0,0,0,2.84,2.84h2.83a2.52,2.52,0,0,0,2.84-2.84V27.92A2.51,2.51,0,0,0,56.41,25.08Zm1.13,5.39a1.25,1.25,0,0,1-1.41,1.41H53.86a1.25,1.25,0,0,1-1.42-1.41V28.2c0-.95.38-1.42,1.14-1.42h2.55a1.25,1.25,0,0,1,1.41,1.42Z"/><polygon class="cls-2" points="69.49 31.01 64.42 25.08 62.69 25.08 62.69 33.59 64.39 33.59 64.39 27.66 69.47 33.59 71.19 33.59 71.19 25.08 69.49 25.08 69.49 31.01"/><polygon class="cls-2" points="74.64 26.78 81.58 26.78 83.14 25.08 74.64 25.08 74.64 26.78"/><polygon class="cls-2" points="74.64 30.19 81.58 30.19 83.14 28.49 74.64 28.49 74.64 30.19"/><polygon class="cls-2" points="74.64 33.59 81.58 33.59 83.14 31.89 74.64 31.89 74.64 33.59"/><path class="cls-2" d="M90,30.18h5.38c1,0,1.42.29,1.42.85s-.47.85-1.42.85H90v1.71H95.7a2.51,2.51,0,0,0,2.83-2.84c0-1.51-.94-2.27-2.83-2.27h-4v-1.7h6.8v-1.7H90Z"/><polygon class="cls-2" points="101.98 25.08 101.98 32.02 103.68 33.59 103.68 25.08 101.98 25.08"/><polygon class="cls-1" points="22.55 14 121.07 14 125.72 22.06 141.89 22.06 129.15 0 14.47 0 22.55 14"/><polygon class="cls-1" points="141.89 24.06 125.72 24.06 76.47 109.38 67.16 109.38 59.08 123.38 84.55 123.38 105.55 87.01 101.7 70.86 116.97 67.22 141.89 24.06"/><polygon class="cls-1" points="65.42 108.38 16.17 23.06 20.82 15 12.74 1 0 23.06 17.14 52.74 57.34 122.38 65.42 108.38"/></g></g></svg>